<svg width="1600" height="2000" viewBox="0 0 1600 2000" fill="none" xmlns="http://www.w3.org/2000/svg">
  <defs>
    <linearGradient id="bg" x1="180" y1="120" x2="1420" y2="1880" gradientUnits="userSpaceOnUse">
      <stop offset="0" stop-color="#F7F3EC"/>
      <stop offset="1" stop-color="#EEE6D9"/>
    </linearGradient>
    <linearGradient id="heroGlow" x1="1004" y1="260" x2="1408" y2="1060" gradientUnits="userSpaceOnUse">
      <stop stop-color="#F4C8A8"/>
      <stop offset="1" stop-color="#F4C8A8" stop-opacity="0"/>
    </linearGradient>
    <linearGradient id="screenGrad" x1="964" y1="328" x2="1364" y2="1232" gradientUnits="userSpaceOnUse">
      <stop stop-color="#FFFDF9"/>
      <stop offset="1" stop-color="#F7F1E8"/>
    </linearGradient>
    <filter id="shadowLg" x="0" y="0" width="1600" height="2000" filterUnits="userSpaceOnUse" color-interpolation-filters="sRGB">
      <feFlood flood-opacity="0" result="BackgroundImageFix"/>
      <feColorMatrix in="SourceAlpha" type="matrix" values="0 0 0 0 0 0 0 0 0 0 0 0 0 0 0 0 0 0 127 0" result="hardAlpha"/>
      <feOffset dy="28"/>
      <feGaussianBlur stdDeviation="30"/>
      <feColorMatrix type="matrix" values="0 0 0 0 0.106 0 0 0 0 0.145 0 0 0 0 0.2 0 0 0 0.12 0"/>
      <feBlend mode="normal" in2="BackgroundImageFix" result="effect1_dropShadow_1_1"/>
      <feBlend mode="normal" in="SourceGraphic" in2="effect1_dropShadow_1_1" result="shape"/>
    </filter>
    <filter id="shadowSm" x="0" y="0" width="1600" height="2000" filterUnits="userSpaceOnUse" color-interpolation-filters="sRGB">
      <feFlood flood-opacity="0" result="BackgroundImageFix"/>
      <feColorMatrix in="SourceAlpha" type="matrix" values="0 0 0 0 0 0 0 0 0 0 0 0 0 0 0 0 0 0 127 0" result="hardAlpha"/>
      <feOffset dy="16"/>
      <feGaussianBlur stdDeviation="18"/>
      <feColorMatrix type="matrix" values="0 0 0 0 0.106 0 0 0 0 0.145 0 0 0 0 0.2 0 0 0 0.08 0"/>
      <feBlend mode="normal" in2="BackgroundImageFix" result="effect1_dropShadow_1_1"/>
      <feBlend mode="normal" in="SourceGraphic" in2="effect1_dropShadow_1_1" result="shape"/>
    </filter>
    <clipPath id="screenClip">
      <rect x="952" y="316" width="420" height="940" rx="34"/>
    </clipPath>
  </defs>

  <rect width="1600" height="2000" fill="url(#bg)"/>
  <circle cx="1230" cy="386" r="360" fill="url(#heroGlow)"/>
  <circle cx="330" cy="1640" r="240" fill="#FFFFFF" fill-opacity="0.34"/>

  <g filter="url(#shadowLg)">
    <rect x="96" y="84" width="1408" height="1832" rx="42" fill="#FCFAF6" fill-opacity="0.88"/>
    <rect x="96.75" y="84.75" width="1406.5" height="1830.5" rx="41.25" stroke="#FFFFFF" stroke-opacity="0.65" stroke-width="1.5"/>
  </g>

  <rect x="160" y="154" width="188" height="38" rx="19" fill="#EEF3F1"/>
  <text x="254" y="178" fill="#2B5D5C" font-family="Inter, Arial, sans-serif" font-size="16" font-weight="700" letter-spacing="2.8" text-anchor="middle">PHOTO SEARCH ENGINE</text>

  <text x="160" y="316" fill="#142331" font-family="Inter, Arial, sans-serif" font-size="92" font-weight="700" letter-spacing="-3.2">Find the photo</text>
  <text x="160" y="406" fill="#142331" font-family="Inter, Arial, sans-serif" font-size="92" font-weight="700" letter-spacing="-3.2">you actually want.</text>
  <text x="160" y="528" fill="#5F6C78" font-family="Inter, Arial, sans-serif" font-size="32" font-weight="500">Local-first image retrieval for large personal photo libraries.</text>

  <g filter="url(#shadowLg)">
    <rect x="914" y="248" width="496" height="1080" rx="42" fill="#17323B"/>
  </g>
  <rect x="952" y="316" width="420" height="940" rx="34" fill="url(#screenGrad)"/>
  <g clip-path="url(#screenClip)">
    <rect x="952" y="316" width="420" height="104" fill="#FBF7F0"/>
    <rect x="982" y="354" width="220" height="16" rx="8" fill="#1B2731"/>
    <rect x="1260" y="350" width="82" height="24" rx="12" fill="#E9F2F0"/>
    <text x="1301" y="366" fill="#2B5D5C" font-family="Inter, Arial, sans-serif" font-size="12" font-weight="700" text-anchor="middle">INDEX READY</text>

    <rect x="982" y="404" width="360" height="72" rx="20" fill="#FFFFFF"/>
    <rect x="1006" y="430" width="188" height="12" rx="6" fill="#22313D"/>
    <rect x="1006" y="452" width="250" height="10" rx="5" fill="#C3CCD4"/>
    <circle cx="1308" cy="440" r="16" fill="#D96B2B"/>

    <rect x="982" y="514" width="360" height="108" rx="26" fill="#F2F6F4"/>
    <text x="1010" y="548" fill="#2B5D5C" font-family="Inter, Arial, sans-serif" font-size="14" font-weight="700">Structured query</text>
    <text x="1010" y="578" fill="#41515D" font-family="Inter, Arial, sans-serif" font-size="18">summer · beach · sunset</text>
    <text x="1010" y="606" fill="#7B8792" font-family="Inter, Arial, sans-serif" font-size="14">time-aware filtering + semantic expansion</text>

    <rect x="982" y="658" width="360" height="238" rx="30" fill="#FFFFFF"/>
    <rect x="1010" y="688" width="118" height="118" rx="20" fill="#E6DDD0"/>
    <rect x="1150" y="688" width="160" height="16" rx="8" fill="#1D2B36"/>
    <rect x="1150" y="718" width="126" height="12" rx="6" fill="#7C8994"/>
    <rect x="1150" y="752" width="112" height="32" rx="16" fill="#EEF3F1"/>
    <text x="1206" y="773" fill="#2B5D5C" font-family="Inter, Arial, sans-serif" font-size="13" font-weight="700" text-anchor="middle">match summary</text>
    <rect x="1150" y="812" width="148" height="10" rx="5" fill="#C3CCD4"/>
    <rect x="1150" y="834" width="126" height="10" rx="5" fill="#C3CCD4"/>
    <rect x="1150" y="856" width="92" height="10" rx="5" fill="#C3CCD4"/>

    <rect x="982" y="924" width="360" height="264" rx="30" fill="#F8F3EB"/>
    <rect x="1010" y="956" width="98" height="98" rx="18" fill="#D9C7B1"/>
    <rect x="1124" y="956" width="98" height="98" rx="18" fill="#C8D7D5"/>
    <rect x="1238" y="956" width="72" height="98" rx="18" fill="#E2B08E"/>
    <rect x="1010" y="1082" width="128" height="12" rx="6" fill="#20303B"/>
    <rect x="1010" y="1106" width="184" height="10" rx="5" fill="#A1ADB7"/>
    <rect x="1010" y="1138" width="144" height="34" rx="17" fill="#FFFFFF"/>
    <text x="1082" y="1160" fill="#42515D" font-family="Inter, Arial, sans-serif" font-size="14" font-weight="600" text-anchor="middle">open path</text>
  </g>

  <g filter="url(#shadowSm)">
    <rect x="160" y="664" width="666" height="196" rx="30" fill="#FFFFFF"/>
  </g>
  <text x="206" y="728" fill="#D96B2B" font-family="Inter, Arial, sans-serif" font-size="18" font-weight="700" letter-spacing="1.8">WHY IT FEELS PRACTICAL</text>
  <text x="206" y="786" fill="#142331" font-family="Inter, Arial, sans-serif" font-size="42" font-weight="700" letter-spacing="-1.2">Search by description or by image.</text>
  <text x="206" y="828" fill="#61707C" font-family="Inter, Arial, sans-serif" font-size="26">The engine supports text query, uploaded reference image, and image-to-image lookup.</text>

  <g filter="url(#shadowSm)">
    <rect x="160" y="916" width="388" height="248" rx="30" fill="#F5F1EA"/>
    <rect x="576" y="916" width="388" height="248" rx="30" fill="#F5F1EA"/>
    <rect x="160" y="1192" width="388" height="248" rx="30" fill="#F5F1EA"/>
    <rect x="576" y="1192" width="388" height="248" rx="30" fill="#F5F1EA"/>
  </g>

  <text x="198" y="980" fill="#142331" font-family="Inter, Arial, sans-serif" font-size="30" font-weight="700">Hybrid retrieval</text>
  <text x="198" y="1026" fill="#61707C" font-family="Inter, Arial, sans-serif" font-size="22">Vector search first,</text>
  <text x="198" y="1058" fill="#61707C" font-family="Inter, Arial, sans-serif" font-size="22">optional keyword search when available.</text>

  <text x="614" y="980" fill="#142331" font-family="Inter, Arial, sans-serif" font-size="30" font-weight="700">Time-aware filtering</text>
  <text x="614" y="1026" fill="#61707C" font-family="Inter, Arial, sans-serif" font-size="22">Reads EXIF capture time,</text>
  <text x="614" y="1058" fill="#61707C" font-family="Inter, Arial, sans-serif" font-size="22">understands “last summer” and “evening”.</text>

  <text x="198" y="1256" fill="#142331" font-family="Inter, Arial, sans-serif" font-size="30" font-weight="700">Incremental indexing</text>
  <text x="198" y="1302" fill="#61707C" font-family="Inter, Arial, sans-serif" font-size="22">New photos can be added</text>
  <text x="198" y="1334" fill="#61707C" font-family="Inter, Arial, sans-serif" font-size="22">without rebuilding the whole library.</text>

  <text x="614" y="1256" fill="#142331" font-family="Inter, Arial, sans-serif" font-size="30" font-weight="700">Explainable results</text>
  <text x="614" y="1302" fill="#61707C" font-family="Inter, Arial, sans-serif" font-size="22">Returns match summary</text>
  <text x="614" y="1334" fill="#61707C" font-family="Inter, Arial, sans-serif" font-size="22">and search debug for each result.</text>

  <line x1="160" y1="1534" x2="1440" y2="1534" stroke="#D8D0C4"/>

  <text x="160" y="1626" fill="#142331" font-family="Inter, Arial, sans-serif" font-size="52" font-weight="700" letter-spacing="-1.5">Built for real photo recall.</text>
  <text x="160" y="1684" fill="#142331" font-family="Inter, Arial, sans-serif" font-size="52" font-weight="700" letter-spacing="-1.5">Not gallery browsing.</text>
  <text x="160" y="1750" fill="#61707C" font-family="Inter, Arial, sans-serif" font-size="28">Flask · FAISS · OpenAI-compatible models · optional Elasticsearch</text>

  <rect x="160" y="1768" width="320" height="76" rx="24" fill="#17323B"/>
  <text x="320" y="1815" fill="#F7F3EC" font-family="Inter, Arial, sans-serif" font-size="26" font-weight="700" text-anchor="middle">Text · Image · Upload</text>

  <text x="1440" y="1810" fill="#2B5D5C" font-family="Inter, Arial, sans-serif" font-size="28" font-weight="700" text-anchor="end">LOCAL-FIRST PHOTO SEARCH</text>
  <text x="1440" y="1852" fill="#7B8792" font-family="Inter, Arial, sans-serif" font-size="22" text-anchor="end">Clean layout · reduced copy</text>
</svg>
